<?xml version="1.0" encoding="UTF-8" standalone="no"?>
<svg width="1520px" height="331px" viewBox="0 0 1520 331" version="1.1" xmlns="http://www.w3.org/2000/svg" xmlns:xlink="http://www.w3.org/1999/xlink">
    <!-- Generator: Sketch 45 (43475) - http://www.bohemiancoding.com/sketch -->
    <title>Artboard 2</title>
    <desc>Created with Sketch.</desc>
    <defs>
        <polygon id="path-1" points="215.18123 232.501691 0 232.501691 0 116.364533 0 0.227375669 215.18123 0.227375669 215.18123 232.501691"></polygon>
    </defs>
    <g id="Page-1" stroke="none" stroke-width="1" fill="none" fill-rule="evenodd">
        <g id="Artboard-2">
            <g id="Group-13" transform="translate(48.000000, 46.051649)">
                <g id="Page-1">
                    <g id="Group-3" transform="translate(0.000000, 2.185456)">
                        <mask id="mask-2" fill="white">
                            <use xlink:href="#path-1"></use>
                        </mask>
                        <g id="Clip-2"></g>
                        <path d="M196.114261,231.568389 C189.812916,232.189004 183.473126,232.502057 177.193749,232.502057 C105.888959,232.502057 40.9367741,193.286162 7.68537085,130.159206 L0,115.56286 L7.68537085,100.975667 C26.2012929,65.8386206 55.9395407,36.6862038 91.4189326,18.886094 L93.154457,18.0165011 L82.8767838,0.227375669 L153.674464,0.227375669 L139.409478,24.9329687 L135.687621,31.3807715 L134.028987,34.2531743 L132.21108,37.4038468 L131.658202,38.3631451 L118.281116,61.5309317 L112.946392,52.2986008 L111.970617,50.6070137 L111.047934,49.0087934 L107.933876,43.6173172 L106.399731,44.3624211 C75.5612188,59.3725105 49.7663462,84.3563733 33.7640054,114.707913 L33.3154785,115.56286 L33.7640054,116.415977 C53.9349001,154.696373 87.8783163,182.578269 127.700181,195.309109 C130.180809,196.103643 132.688898,196.823116 135.215294,197.496822 C138.358644,198.337124 141.534947,199.093212 144.740541,199.744949 C155.292822,201.888724 166.152665,203.010957 177.193749,203.010957 C188.106683,203.010957 198.981172,201.908862 209.650619,199.744949 C211.499648,199.369651 213.345016,198.972384 215.18123,198.533011 L214.483725,199.743118 L212.967887,202.370204 L196.562788,230.790332 L196.114261,231.568389 Z" id="Fill-1" fill="#1D3665" mask="url(#mask-2)"></path>
                    </g>
                    <g id="Group-6" transform="translate(139.134870, 0.354734)" fill="#1D3665">
                        <path d="M62.9096485,232.739502 L61.5878672,232.739502 L79.5728799,201.593429 L81.2333447,198.717364 L83.0494209,195.570353 L83.6059604,194.609224 L83.5949761,194.611055 L96.9720615,171.435946 L102.308616,180.67743 L103.286222,182.361694 L104.212567,183.965407 L107.319302,189.34956 L108.853447,188.604456 C139.691959,173.590705 165.488662,148.605012 181.487342,118.246149 L181.937699,117.393033 L181.487342,116.539916 C161.314616,78.2595199 127.363877,50.3776243 87.5346898,37.6504451 C85.0522308,36.8559117 82.5404802,36.136438 80.0122532,35.4627323 C76.8579192,34.6206002 73.6779551,33.864512 70.4650381,33.212775 C59.9274024,31.0744917 49.0840361,29.9540899 38.0594284,29.9540899 C27.1446639,29.9540899 16.2939748,31.0525231 5.67761806,33.2054521 C3.80478948,33.5844116 1.93379162,33.9871704 0.0774395396,34.4320358 L0.769452446,33.232913 L2.28529024,30.6094884 L3.18783618,29.0423903 L18.8423398,1.92939789 C21.751357,1.57057638 31.1685909,0.475804641 38.0594284,0.475804641 C109.360557,0.475804641 174.312742,39.6862079 207.567807,102.80584 L215.253178,117.393033 L207.567807,131.99121 C189.050054,167.128257 159.313637,196.280674 123.834245,214.080783 L122.098721,214.950376 L132.376394,232.739502 L62.9096485,232.739502 Z" id="Fill-4"></path>
                    </g>
                    <path d="M177.193932,178.764266 C143.503156,178.764266 116.188784,151.451725 116.188784,117.759118 C116.188784,84.0665104 143.503156,56.7539692 177.193932,56.7539692 C210.88654,56.7539692 238.199081,84.0665104 238.199081,117.759118 C238.199081,151.451725 210.88654,178.764266 177.193932,178.764266 M225.089281,41.3466131 C209.843028,36.5281529 193.72169,33.9761264 177.18844,33.9761264 C163.448872,33.9761264 149.815485,35.7464346 136.648933,39.2211449 L118.273976,71.044585 L110.313997,57.2592485 C95.8128484,73.2744043 86.9667998,94.4997949 86.9667998,117.753625 C86.9667998,149.910257 103.88084,178.176604 129.265631,194.160638 C144.519207,198.986421 160.646036,201.540278 177.18844,201.540278 C190.88041,201.540278 204.515627,199.76997 217.73344,196.29709 L236.101073,164.47182 L244.068375,178.26814 C258.573186,162.249323 267.421065,141.01661 267.421065,117.753625 C267.421065,85.5933325 250.492379,57.3269852 225.089281,41.3466131" id="Fill-7" fill="#5096C7"></path>
                    <path d="M201.908679,117.758751 C201.908679,131.408615 190.843795,142.473498 177.193932,142.473498 C163.5459,142.473498 152.479186,131.408615 152.479186,117.758751 C152.479186,104.108888 163.5459,93.0440048 177.193932,93.0440048 C190.843795,93.0440048 201.908679,104.108888 201.908679,117.758751" id="Fill-9" fill="#DD7363"></path>
                </g>
                <path d="M445.938403,171.125868 L445.938403,78.4427083 L466.063889,78.4427083 L495.590095,137.230313 L524.719089,78.4427083 L544.844575,78.4427083 L544.844575,171.125868 L527.896797,171.125868 L527.896797,107.174488 L502.077917,157.885417 L488.705061,157.885417 L462.886181,107.174488 L462.886181,171.125868 L445.938403,171.125868 Z M567.077264,171.125868 L567.077264,78.4427083 L584.025042,78.4427083 L584.025042,171.125868 L567.077264,171.125868 Z M606.257731,171.125868 L606.257731,78.4427083 L637.90241,78.4427083 C648.759634,78.4427083 657.69685,80.3625546 664.714324,84.2023047 C671.731798,88.0420548 676.939657,93.4264512 680.338057,100.355655 C683.736456,107.28486 685.43563,115.427656 685.43563,124.784288 C685.43563,134.140921 683.736456,142.283717 680.338057,149.212921 C676.939657,156.142125 671.731798,161.526522 664.714324,165.366272 C657.69685,169.206022 648.759634,171.125868 637.90241,171.125868 L606.257731,171.125868 Z M623.205509,156.561372 L637.107983,156.561372 C644.875753,156.561372 651.010434,155.303541 655.51221,152.787843 C660.013986,150.272145 663.235797,146.653124 665.17774,141.930673 C667.119682,137.208221 668.090639,131.492817 668.090639,124.784288 C668.090639,118.164029 667.119682,112.470692 665.17774,107.704106 C663.235797,102.93752 660.013986,99.2743647 655.51221,96.7145313 C651.010434,94.1546978 644.875753,92.8748003 637.107983,92.8748003 L623.205509,92.8748003 L623.205509,156.561372 Z M704.623016,171.125868 L704.623016,78.4427083 L721.570794,78.4427083 L765.131879,143.718134 L765.131879,78.4427083 L782.079657,78.4427083 L782.079657,171.125868 L765.131879,171.125868 L721.570794,105.982847 L721.570794,171.125868 L704.623016,171.125868 Z M804.312346,171.125868 L804.312346,78.4427083 L864.821209,78.4427083 L864.821209,92.0803733 L821.260124,92.0803733 L821.260124,117.50204 L860.849073,117.50204 L860.849073,130.742491 L821.260124,130.742491 L821.260124,157.488203 L864.821209,157.488203 L864.821209,171.125868 L804.312346,171.125868 Z M906.649766,171.125868 L906.649766,92.0803733 L879.639245,92.0803733 L879.639245,78.4427083 L950.740469,78.4427083 L950.740469,92.0803733 L923.597544,92.0803733 L923.597544,171.125868 L906.649766,171.125868 Z M1003.28252,171.125868 L1003.28252,78.4427083 L1023.40801,78.4427083 L1052.93422,137.230313 L1082.06321,78.4427083 L1102.1887,78.4427083 L1102.1887,171.125868 L1085.24092,171.125868 L1085.24092,107.174488 L1059.42204,157.885417 L1046.04918,157.885417 L1020.2303,107.174488 L1020.2303,171.125868 L1003.28252,171.125868 Z M1124.42138,171.125868 L1124.42138,78.4427083 L1184.93025,78.4427083 L1184.93025,92.0803733 L1141.36916,92.0803733 L1141.36916,117.50204 L1180.95811,117.50204 L1180.95811,130.742491 L1141.36916,130.742491 L1141.36916,157.488203 L1184.93025,157.488203 L1184.93025,171.125868 L1124.42138,171.125868 Z M1205.17687,171.125868 L1205.17687,78.4427083 L1236.82155,78.4427083 C1247.67877,78.4427083 1256.61599,80.3625546 1263.63346,84.2023047 C1270.65094,88.0420548 1275.8588,93.4264512 1279.25719,100.355655 C1282.65559,107.28486 1284.35477,115.427656 1284.35477,124.784288 C1284.35477,134.140921 1282.65559,142.283717 1279.25719,149.212921 C1275.8588,156.142125 1270.65094,161.526522 1263.63346,165.366272 C1256.61599,169.206022 1247.67877,171.125868 1236.82155,171.125868 L1205.17687,171.125868 Z M1222.12465,156.561372 L1236.02712,156.561372 C1243.79489,156.561372 1249.92957,155.303541 1254.43135,152.787843 C1258.93312,150.272145 1262.15494,146.653124 1264.09688,141.930673 C1266.03882,137.208221 1267.00978,131.492817 1267.00978,124.784288 C1267.00978,118.164029 1266.03882,112.470692 1264.09688,107.704106 C1262.15494,102.93752 1258.93312,99.2743647 1254.43135,96.7145313 C1249.92957,94.1546978 1243.79489,92.8748003 1236.02712,92.8748003 L1222.12465,92.8748003 L1222.12465,156.561372 Z M1303.54215,171.125868 L1303.54215,78.4427083 L1320.48993,78.4427083 L1320.48993,171.125868 L1303.54215,171.125868 Z M1336.76442,171.125868 L1370.65997,78.4427083 L1389.72622,78.4427083 L1423.62178,171.125868 L1405.61477,171.125868 L1398.20011,149.676337 L1362.05368,149.676337 L1354.50662,171.125868 L1336.76442,171.125868 Z M1366.68784,136.435885 L1393.56595,136.435885 L1380.06069,97.9061719 L1366.68784,136.435885 Z" id="MIDNET-MEDIA" fill="#1D3665"></path>
            </g>
        </g>
    </g>
</svg>